HIERARCHY
ROOT hip
{
  OFFSET 0 0 0
  CHANNELS 6 Xposition Yposition Zposition Zrotation Yrotation Xrotation
  JOINT abdomen
  {
    OFFSET 0 20.6881 -0.73152
    CHANNELS 3 Zrotation Xrotation Yrotation
    JOINT chest
    {
      OFFSET 0 11.7043 -0.48768
      CHANNELS 3 Zrotation Xrotation Yrotation
      JOINT neck
      {
        OFFSET 0 22.1894 -2.19456
        CHANNELS 3 Zrotation Xrotation Yrotation
        JOINT head
        {
          OFFSET -0.24384 7.07133 1.2192
          CHANNELS 3 Zrotation Xrotation Yrotation
          JOINT leftEye
          {
            OFFSET 4.14528 8.04674 8.04672
            CHANNELS 3 Zrotation Xrotation Yrotation
            End Site
            {
              OFFSET 1 0 0
            }
          }
          JOINT rightEye
          {
            OFFSET -3.6576 8.04674 8.04672
            CHANNELS 3 Zrotation Xrotation Yrotation
            End Site
            {
              OFFSET 1 0 0
            }
          }
        }
      }
      JOINT rCollar
      {
        OFFSET -2.68224 19.2634 -4.8768
        CHANNELS 3 Zrotation Xrotation Yrotation
        JOINT rShldr
        {
          OFFSET -8.77824 -1.95073 1.46304
          CHANNELS 3 Zrotation Xrotation Yrotation
          JOINT rForeArm
          {
            OFFSET -28.1742 -1.7115 0.48768
            CHANNELS 3 Zrotation Xrotation Yrotation
            JOINT rHand
            {
              OFFSET -22.5879 0.773209 7.07136
              CHANNELS 3 Zrotation Xrotation Yrotation
              JOINT rThumb1
              {
                OFFSET -1.2192 -0.487915 3.41376
                CHANNELS 3 Zrotation Xrotation Yrotation
                JOINT rThumb2
                {
                  OFFSET -3.37035 -0.52449 3.41376
                  CHANNELS 3 Zrotation Xrotation Yrotation
                  End Site
                  {
                    OFFSET -1.78271 -1.18214 1.43049
                  }
                }
              }
              JOINT rIndex1
              {
                OFFSET -7.75947 0.938293 5.60832
                CHANNELS 3 Zrotation Xrotation Yrotation
                JOINT rIndex2
                {
                  OFFSET -2.54057 -0.884171 1.56538
                  CHANNELS 3 Zrotation Xrotation Yrotation
                  End Site
                  {
                    OFFSET -1.62519 -0.234802 1.16502
                  }
                }
              }
              JOINT rMid1
              {
                OFFSET -8.24714 1.18213 3.41376
                CHANNELS 3 Zrotation Xrotation Yrotation
                JOINT rMid2
                {
                  OFFSET -3.10165 -0.590103 1.0647
                  CHANNELS 3 Zrotation Xrotation Yrotation
                  End Site
                  {
                    OFFSET -2.48547 -0.328903 0.83742
                  }
                }
              }
              JOINT rRing1
              {
                OFFSET -8.82822 0.546677 1.51678
                CHANNELS 3 Zrotation Xrotation Yrotation
                JOINT rRing2
                {
                  OFFSET -2.60934 -0.819778 -0.0198488
                  CHANNELS 3 Zrotation Xrotation Yrotation
                  End Site
                  {
                    OFFSET -2.33842 -0.294052 0.168128
                  }
                }
              }
              JOINT rPinky1
              {
                OFFSET -8.27202 -0.0477905 -0.4584
                CHANNELS 3 Zrotation Xrotation Yrotation
                JOINT rPinky2
                {
                  OFFSET -1.82734 -0.647385 -0.700984
                  CHANNELS 3 Zrotation Xrotation Yrotation
                  End Site
                  {
                    OFFSET -1.69225 -0.51767 -0.607171
                  }
                }
              }
            }
          }
        }
      }
      JOINT lCollar
      {
        OFFSET 2.68224 19.2634 -4.8768
        CHANNELS 3 Zrotation Xrotation Yrotation
        JOINT lShldr
        {
          OFFSET 8.77824 -1.95073 1.46304
          CHANNELS 3 Zrotation Xrotation Yrotation
          JOINT lForeArm
          {
            OFFSET 28.1742 -1.7115 0.48768
            CHANNELS 3 Zrotation Xrotation Yrotation
            JOINT lHand
            {
              OFFSET 22.5879 0.773209 7.07136
              CHANNELS 3 Zrotation Xrotation Yrotation
              JOINT lThumb1
              {
                OFFSET 1.2192 -0.487915 3.41376
                CHANNELS 3 Zrotation Xrotation Yrotation
                JOINT lThumb2
                {
                  OFFSET 3.37035 -0.52449 3.41376
                  CHANNELS 3 Zrotation Xrotation Yrotation
                  End Site
                  {
                    OFFSET 1.78271 -1.18214 1.43049
                  }
                }
              }
              JOINT lIndex1
              {
                OFFSET 7.75947 0.938293 5.60832
                CHANNELS 3 Zrotation Xrotation Yrotation
                JOINT lIndex2
                {
                  OFFSET 2.54057 -0.884171 1.56538
                  CHANNELS 3 Zrotation Xrotation Yrotation
                  End Site
                  {
                    OFFSET 1.62519 -0.234802 1.16502
                  }
                }
              }
              JOINT lMid1
              {
                OFFSET 8.24714 1.18213 3.41376
                CHANNELS 3 Zrotation Xrotation Yrotation
                JOINT lMid2
                {
                  OFFSET 3.10165 -0.590103 1.0647
                  CHANNELS 3 Zrotation Xrotation Yrotation
                  End Site
                  {
                    OFFSET 2.48547 -0.328903 0.83742
                  }
                }
              }
              JOINT lRing1
              {
                OFFSET 8.82822 0.546677 1.51678
                CHANNELS 3 Zrotation Xrotation Yrotation
                JOINT lRing2
                {
                  OFFSET 2.60934 -0.819778 -0.0198488
                  CHANNELS 3 Zrotation Xrotation Yrotation
                  End Site
                  {
                    OFFSET 2.33842 -0.294052 0.168128
                  }
                }
              }
              JOINT lPinky1
              {
                OFFSET 8.27202 -0.0477905 -0.4584
                CHANNELS 3 Zrotation Xrotation Yrotation
                JOINT lPinky2
                {
                  OFFSET 1.82734 -0.647385 -0.700984
                  CHANNELS 3 Zrotation Xrotation Yrotation
                  End Site
                  {
                    OFFSET 1.69225 -0.51767 -0.607171
                  }
                }
              }
            }
          }
        }
      }
    }
  }
  JOINT rButtock
  {
    OFFSET -8.77824 4.35084 1.2192
    CHANNELS 3 Zrotation Xrotation Yrotation
    JOINT rThigh
    {
      OFFSET 0 -1.70687 -2.19456
      CHANNELS 3 Zrotation Xrotation Yrotation
      JOINT rShin
      {
        OFFSET 0 -36.8199 0.73152
        CHANNELS 3 Zrotation Xrotation Yrotation
        JOINT rFoot
        {
          OFFSET 0.73152 -45.1104 -5.12064
          CHANNELS 3 Zrotation Xrotation Yrotation
          End Site
          {
            OFFSET -1.1221 -3.69964 12.103
          }
        }
      }
    }
  }
  JOINT lButtock
  {
    OFFSET 8.77824 4.35084 1.2192
    CHANNELS 3 Zrotation Xrotation Yrotation
    JOINT lThigh
    {
      OFFSET 0 -1.70687 -2.19456
      CHANNELS 3 Zrotation Xrotation Yrotation
      JOINT lShin
      {
        OFFSET 0 -36.8199 0.73152
        CHANNELS 3 Zrotation Xrotation Yrotation
        JOINT lFoot
        {
          OFFSET -0.73152 -45.1104 -5.12064
          CHANNELS 3 Zrotation Xrotation Yrotation
          End Site
          {
            OFFSET 1.1221 -3.69964 12.103
          }
        }
      }
    }
  }
}
MOTION
Frames:	5
Frame Time:	0.00833333
-164.68 85.4571 14.9907 0.0 0.0 0.0 1.92987 -0.00172185 0.0523823 0.532079 0.00507095 0.092122 5.73895e-14 0.0 -2.23632e-16 1.71874e-13 3.18055e-15 -7.98245e-16 -0.0 0.0 0.0 -0.0 0.0 0.0 2.85246e-14 -1.08516e-16 4.96962e-17 6.04893e-13 -2.21769e-15 -5.96354e-16 1.0414e-11 -3.1891e-12 -1.62208e-13 1.19065e-10 2.68416e-12 -3.56222e-13 2.80881e-10 -1.09632e-12 -1.1291e-12 4.85056e-10 -1.89561e-12 -1.94888e-12 2.80886e-10 -1.09371e-12 -1.14182e-12 7.73091 5.47488 0.417314 2.8088e-10 -1.0967e-12 -1.12274e-12 2.90554 0.965183 0.102902 2.80885e-10 -1.0964e-12 -1.12194e-12 10.2786 0.731801 0.0259123 2.80874e-10 -1.09332e-12 -1.11319e-12 2.22167 -0.733487 -0.20892 2.84291e-14 -1.11816e-16 -2.48481e-16 6.0288e-13 -2.52208e-15 -1.78906e-15 1.03898e-11 3.03405e-12 -1.27222e-13 1.19066e-10 -3.5417e-12 -3.65764e-13 2.80842e-10 -1.09784e-12 -1.11637e-12 4.85021e-10 -1.89879e-12 -1.93298e-12 2.80836e-10 -1.0961e-12 -1.10683e-12 -7.73091 5.47488 -0.417314 2.80843e-10 -1.09819e-12 -1.12274e-12 -2.90554 0.965183 -0.102902 2.80838e-10 -1.09779e-12 -1.11876e-12 -10.2786 0.731801 -0.0259123 2.80843e-10 -1.09689e-12 -1.1291e-12 -2.22167 -0.733487 0.20892 -2.03217e-16 0.0 -3.88251e-19 1.95951 -7.26115 -0.192019 0.00412044 7.58527 0.107061 -0.521325 -0.330662 0.0523324 2.03217e-16 0.0 3.88251e-19 0.976716 -1.92613 0.0008692 0.00898688 -2.0786 0.0740603 0.487833 3.99809 -0.136731
-157.982 85.5645 6.00082 45.6819 84.0787 45.5888 0.278649 1.63082 0.863416 1.19266 -0.6208 0.349598 0.727118 -1.59926 0.639322 -0.940585 -0.497206 1.0017 -0.0 0.0 0.0 -0.0 0.0 0.0 1.63224e-14 7.67279e-13 -9.643e-15 21.8732 10.5568 1.1754 -4.27847 -1.95579 6.66977 0.00454157 1.49505 0.209857 -1.18159e-09 -4.66114e-11 1.10864e-09 -2.03558e-09 -8.06804e-11 1.92406e-09 -1.18159e-09 -4.66086e-11 1.10862e-09 7.73091 5.47488 0.417314 -1.18159e-09 -4.66114e-11 1.10864e-09 2.90554 0.965183 0.102902 -1.18158e-09 -4.66111e-11 1.10864e-09 10.2786 0.731801 0.0259123 -1.1816e-09 -4.66084e-11 1.10865e-09 2.22167 -0.733487 -0.20892 1.62485e-14 7.6698e-13 -9.8876e-15 -21.9518 12.6695 -1.69259 3.56646 -1.50921 -5.68551 -0.0214089 3.28894 -0.459589 2.22236e-09 -9.09792e-10 -9.06667e-10 3.83063e-09 -1.5718e-09 -1.58758e-09 2.22235e-09 -9.09792e-10 -9.06653e-10 -7.73091 5.47488 -0.417314 2.22236e-09 -9.09795e-10 -9.06672e-10 -2.90554 0.965183 -0.102902 2.22235e-09 -9.09796e-10 -9.06668e-10 -10.2786 0.731801 -0.0259123 2.22236e-09 -9.09794e-10 -9.06679e-10 -2.22167 -0.733487 0.20892 -2.03217e-16 0.0 -3.88251e-19 -1.81482 -4.1455 -1.52597 0.00360992 8.08722 0.12216 -0.536446 -4.53795 -0.971194 2.03217e-16 0.0 3.88251e-19 1.26417 1.50115 0.14308 0.00587331 -2.54557 0.0521241 0.613989 0.728776 2.96427
-157.986 85.5649 5.99886 45.7911 84.0438 45.7194 -1.51394 3.35515 1.72493 1.89535 -1.28222 0.622428 1.53352 -3.287 1.31606 -1.91031 -1.02623 2.05978 -0.0 0.0 0.0 -0.0 0.0 0.0 6.05529e-16 1.50148e-12 -1.83348e-14 44.4908 21.7034 2.56508 -8.30919 -3.93447 13.7443 -0.00257835 3.07347 0.431901 -2.78305e-09 -9.67968e-11 2.3403e-09 -4.79571e-09 -1.67543e-10 4.06151e-09 -2.78305e-09 -9.67936e-11 2.34028e-09 7.73091 5.47488 0.417314 -2.78305e-09 -9.67963e-11 2.3403e-09 2.90554 0.965183 0.102902 -2.78304e-09 -9.67959e-11 2.3403e-09 10.2786 0.731801 0.0259123 -2.78306e-09 -9.67936e-11 2.3403e-09 2.22167 -0.733487 -0.20892 5.54501e-16 1.50068e-12 -1.85149e-14 -44.2561 26.0314 -3.78179 7.00667 -3.05117 -11.6988 0.0143045 6.82593 -0.959107 4.37329e-09 -1.91331e-09 -1.89014e-09 7.53723e-09 -3.30553e-09 -3.3101e-09 4.37328e-09 -1.91331e-09 -1.89013e-09 -7.73091 5.47488 -0.417314 4.37329e-09 -1.91331e-09 -1.89015e-09 -2.90554 0.965183 -0.102902 4.37328e-09 -1.91331e-09 -1.89014e-09 -10.2786 0.731801 -0.0259123 4.37329e-09 -1.91331e-09 -1.89016e-09 -2.22167 -0.733487 0.20892 -2.03217e-16 0.0 -3.88251e-19 -5.64217 -0.854333 -2.92647 0.00280317 8.61876 0.138178 -0.717706 -8.98167 -2.07179 2.03217e-16 0.0 3.88251e-19 1.55353 5.12533 0.29704 0.00211733 -3.04083 0.0289939 1.13159 -2.708 6.25106
-157.99 85.565 5.9892 46.0932 83.9908 46.0416 -3.16284 4.89183 2.49352 2.53069 -1.87236 0.86495 2.28872 -4.79539 1.92396 -2.76961 -1.48979 3.00602 -0.0 0.0 0.0 -0.0 0.0 0.0 -8.082e-15 2.30205e-12 -2.90284e-14 64.1291 31.6121 4.07145 -11.4949 -5.55 20.0959 -0.0193159 4.4849 0.631289 -4.10653e-09 -1.37642e-10 3.32816e-09 -7.07686e-09 -2.3825e-10 5.77609e-09 -4.10653e-09 -1.37638e-10 3.32815e-09 7.73091 5.47488 0.417314 -4.10653e-09 -1.37641e-10 3.32816e-09 2.90554 0.965183 0.102902 -4.10652e-09 -1.3764e-10 3.32816e-09 10.2786 0.731801 0.0259123 -4.10653e-09 -1.37638e-10 3.32817e-09 2.22167 -0.733487 -0.20892 -8.11282e-15 2.30116e-12 -2.91658e-14 -63.1061 37.8573 -6.2794 9.8134 -4.34961 -17.1014 0.0960686 9.86425 -1.39715 6.10539e-09 -2.72718e-09 -2.71777e-09 1.05218e-08 -4.7116e-09 -4.75887e-09 6.10538e-09 -2.72718e-09 -2.71775e-09 -7.73091 5.47488 -0.417314 6.10539e-09 -2.72719e-09 -2.71777e-09 -2.90554 0.965183 -0.102902 6.10539e-09 -2.72719e-09 -2.71777e-09 -10.2786 0.731801 -0.0259123 6.1054e-09 -2.72719e-09 -2.71778e-09 -2.22167 -0.733487 0.20892 -2.03217e-16 0.0 -3.88251e-19 -8.92904 2.07594 -4.18774 0.00178478 9.09112 0.152504 -1.02738 -12.9363 -3.08755 2.03217e-16 0.0 3.88251e-19 1.78762 8.35547 0.431941 -0.00142826 -3.4795 0.00821006 1.92659 -5.73256 9.21136
-157.986 85.5671 5.97882 46.4312 83.967 46.3637 -4.3538 5.96325 3.02213 2.98572 -2.28448 1.03133 2.84049 -5.85769 2.3541 -3.39022 -1.79145 3.67173 -0.0 0.0 0.0 -0.0 0.0 0.0 8.03825e-16 3.26858e-12 -4.47266e-14 77.4406 38.4817 5.3546 -13.502 -6.55955 24.5574 -0.036961 5.47909 0.772415 -4.73506e-09 -1.55135e-10 3.70654e-09 -8.16053e-09 -2.68566e-10 6.43348e-09 -4.73506e-09 -1.55132e-10 3.70652e-09 7.73091 5.47488 0.417314 -4.73506e-09 -1.55134e-10 3.70653e-09 2.90554 0.965183 0.102902 -4.73505e-09 -1.55134e-10 3.70653e-09 10.2786 0.731801 0.0259123 -4.73506e-09 -1.55132e-10 3.70654e-09 2.22167 -0.733487 -0.20892 7.86479e-16 3.26859e-12 -4.48756e-14 -75.3818 45.9817 -8.70346 11.6501 -5.20632 -20.9348 0.169666 11.6587 -1.66175 6.79043e-09 -3.06695e-09 -3.15575e-09 1.17015e-08 -5.29849e-09 -5.52329e-09 6.79042e-09 -3.06696e-09 -3.15573e-09 -7.73091 5.47488 -0.417314 6.79043e-09 -3.06696e-09 -3.15576e-09 -2.90554 0.965183 -0.102902 6.79043e-09 -3.06696e-09 -3.15575e-09 -10.2786 0.731801 -0.0259123 6.79044e-09 -3.06696e-09 -3.15576e-09 -2.22167 -0.733487 0.20892 -2.03217e-16 0.0 -3.88251e-19 -11.1682 4.11572 -5.0937 0.000808665 9.41553 0.162492 -1.32982 -15.6836 -3.82574 2.03217e-16 0.0 3.88251e-19 1.92153 10.6007 0.514347 -0.003689 -3.77671 -0.00667395 2.6669 -7.80952 11.2939
